<?xml version="1.0" standalone="no"?>
<!DOCTYPE svg PUBLIC "-//W3C//DTD SVG 20010904//EN"
 "http://www.w3.org/TR/2001/REC-SVG-20010904/DTD/svg10.dtd">
<svg version="1.0" xmlns="http://www.w3.org/2000/svg"
 width="191.000000pt" height="300.000000pt" viewBox="0 0 191.000000 300.000000"
 preserveAspectRatio="xMidYMid meet">
<metadata>
Created by potrace 1.10, written by Peter Selinger 2001-2011
</metadata>
<g transform="translate(0.000000,300.000000) scale(0.100000,-0.100000)"
fill="#000000" stroke="none">
<path d="M989 2850 c-1 -3 -1 -29 1 -57 l2 -53 -61 0 -61 0 0 -70 0 -70 60 0
60 0 0 -60 0 -60 65 0 65 0 0 60 0 60 60 0 60 0 0 70 0 70 -60 0 -60 0 0 58 0
57 -65 0 c-36 0 -66 -2 -66 -5z m91 -70 c0 -28 48 -78 77 -82 33 -4 54 -34 33
-48 -8 -5 -27 -10 -43 -10 -31 0 -67 -47 -67 -87 0 -18 -6 -23 -24 -23 -25 0
-36 16 -36 55 0 29 -22 47 -68 54 -62 10 -54 60 9 61 29 0 59 35 59 69 0 30
29 55 46 40 8 -6 14 -20 14 -29z"/>
<path d="M735 2429 c-200 -47 -217 -294 -36 -533 l52 -68 -23 -16 c-56 -38
-98 -90 -98 -120 0 -25 10 -38 57 -74 90 -68 98 -89 98 -243 0 -154 -11 -208
-71 -332 -32 -66 -63 -112 -113 -166 -38 -41 -72 -84 -75 -95 -9 -28 8 -59 58
-103 l41 -37 -53 -49 c-47 -44 -52 -53 -52 -92 0 -37 5 -49 34 -76 l35 -32
-24 -35 c-13 -20 -57 -61 -98 -91 -79 -60 -100 -93 -95 -148 l3 -34 680 -2
c478 -2 675 1 662 8 -12 7 -125 9 -332 7 l-315 -3 0 38 0 37 310 0 c283 0 311
2 317 17 5 12 -7 28 -43 57 -27 23 -70 62 -95 88 l-45 48 -222 0 -222 0 0 35
0 35 238 0 c172 0 241 3 250 12 7 7 12 29 12 50 0 40 -17 65 -70 100 -22 14
-23 19 -12 37 6 11 12 23 12 26 0 3 -97 4 -215 3 l-214 -3 -3 35 -3 35 -217
-2 c-120 0 -218 2 -218 6 0 4 42 13 93 20 157 20 180 34 75 44 -35 3 -78 11
-96 18 l-32 11 30 34 c65 75 133 245 151 381 11 84 7 241 -7 291 -6 22 -6 22
110 22 l116 0 0 -275 c0 -151 -2 -275 -5 -275 -3 0 -22 11 -43 24 -46 29 -104
92 -123 134 -20 46 -33 39 -26 -13 12 -85 78 -174 160 -216 35 -18 37 -23 36
-62 -1 -23 -1 -63 0 -89 l1 -48 239 0 c190 0 241 3 250 14 16 20 4 44 -51 99
-149 151 -239 420 -209 622 6 42 11 80 11 85 0 6 -50 10 -120 10 l-120 0 0 35
0 35 194 0 c184 0 195 1 201 20 8 24 -17 72 -51 99 -25 19 -40 21 -185 21
l-159 0 0 40 0 40 139 0 139 0 37 43 c129 149 162 381 67 469 -51 48 -69 52
-233 56 l-156 4 1 -283 1 -284 -95 1 c-82 0 -102 4 -146 27 -62 32 -98 72
-137 155 -68 146 -35 283 70 286 38 1 38 1 43 -44 7 -55 20 -80 60 -114 48
-40 190 -75 190 -46 0 6 -4 10 -9 10 -15 0 -111 91 -126 121 -34 65 -5 130 66
149 21 6 39 13 39 15 0 9 -245 3 -285 -6z m130 -76 c-4 -33 -1 -63 10 -93 l16
-45 -21 21 c-11 11 -23 38 -27 60 -3 21 -16 51 -29 65 -28 30 -23 39 23 39
l34 0 -6 -47z m533 22 c65 -39 87 -132 57 -247 -18 -71 -92 -196 -125 -212
-30 -15 -198 -10 -217 6 -16 13 -16 432 -1 462 9 17 21 18 131 14 98 -3 129
-8 155 -23z m-514 -535 c30 0 12 -11 -36 -21 -24 -5 -50 -12 -58 -14 -11 -3
-15 3 -16 23 0 15 -4 35 -8 45 -7 15 -1 14 45 -8 30 -14 63 -25 73 -25z m186
-120 l0 -60 -175 0 -175 0 0 23 c0 26 42 71 80 86 14 5 80 10 148 10 l122 1 0
-60z m322 13 c42 -38 26 -43 -127 -43 -152 0 -167 4 -151 45 9 23 252 22 278
-2z m-552 -118 c0 -3 -7 -17 -16 -31 -16 -23 -18 -24 -35 -8 -30 27 -24 44 16
44 19 0 35 -2 35 -5z m408 -83 c8 -6 12 -37 11 -108 -1 -54 3 -126 9 -159 24
-138 102 -304 189 -404 24 -28 42 -55 38 -61 -4 -6 -77 -10 -191 -10 l-184 0
-10 25 c-5 13 -9 45 -8 70 0 34 -5 52 -21 69 -25 26 -27 42 -6 49 25 10 31 65
28 291 -3 197 -1 222 14 234 19 13 111 16 131 4z m-575 -724 c7 -4 2 -10 -15
-17 -28 -10 -46 -47 -31 -62 14 -14 105 -22 246 -22 70 0 130 -4 133 -8 6 -11
11 -10 -145 -10 -82 0 -138 -5 -167 -15 l-43 -14 -40 42 c-22 24 -41 52 -41
63 0 12 16 38 37 60 l36 39 9 -24 c5 -14 14 -28 21 -32z m394 -255 l3 -93
-230 0 -230 0 -6 26 c-10 39 27 71 98 86 32 7 58 16 58 21 0 5 -18 16 -40 24
-22 9 -40 20 -40 25 0 5 86 7 192 6 l192 -3 3 -92z m381 66 c9 -12 32 -35 50
-52 34 -32 41 -61 17 -71 -19 -7 -396 2 -404 9 -10 10 -9 110 2 123 7 9 52 12
163 12 145 0 155 -1 172 -21z m-382 -351 l1 -97 -298 -3 c-165 -2 -299 0 -299
3 0 4 17 18 38 32 48 32 99 83 130 130 l25 37 201 -2 201 -3 1 -97z m487 17
c31 -30 57 -59 57 -65 0 -16 -500 -14 -502 3 -6 47 -6 75 -2 95 4 22 5 22 197
22 l192 -1 58 -54z m-1079 -157 c-9 -14 -54 -9 -60 7 -4 8 -1 22 6 29 10 13
15 12 35 -6 14 -12 22 -25 19 -30z"/>
</g>
</svg>
